<svg width="16" height="16" viewBox="0 0 16 16" fill="none" xmlns="http://www.w3.org/2000/svg">
<path fill-rule="evenodd" clip-rule="evenodd" d="M6.8999 2.35158C6.8999 1.54989 7.5498 0.899994 8.35149 0.899994C9.15318 0.899994 9.80307 1.54989 9.80307 2.35158C9.80307 3.15327 9.15318 3.80317 8.35149 3.80317C7.5498 3.80317 6.8999 3.15327 6.8999 2.35158ZM6.8999 7.99998C6.8999 7.1983 7.5498 6.5484 8.35149 6.5484C9.15318 6.5484 9.80307 7.1983 9.80307 7.99998C9.80307 8.80167 9.15318 9.45157 8.35149 9.45157C7.5498 9.45157 6.8999 8.80167 6.8999 7.99998ZM6.8999 13.6484C6.8999 12.8467 7.5498 12.1968 8.35149 12.1968C9.15318 12.1968 9.80307 12.8467 9.80307 13.6484C9.80307 14.4501 9.15318 15.1 8.35149 15.1C7.5498 15.1 6.8999 14.4501 6.8999 13.6484Z" fill="#333333"/>
</svg>
